<svg width="400" height="400" viewBox="0 0 400 400" fill="none" xmlns="http://www.w3.org/2000/svg">
  <!-- Outer Ring -->
  <circle cx="200" cy="200" r="85" stroke="#374151" stroke-width="12"/>
  
  <!-- Compass Needles (Cardinals) -->
  <!-- North -->
  <path d="M200 80 L212 140 L188 140 Z" fill="#0D9488"/>
  <!-- South -->
  <path d="M200 320 L188 260 L212 260 Z" fill="#0D9488"/>
  <!-- East -->
  <path d="M320 200 L260 212 L260 188 Z" fill="#374151"/>
  <!-- West -->
  <path d="M80 200 L140 188 L140 212 Z" fill="#374151"/>

  <!-- Compass Labels -->
  <text x="200" y="55" text-anchor="middle" font-family="Arial, sans-serif" font-size="28" font-weight="900" fill="#374151">N</text>
  <text x="200" y="365" text-anchor="middle" font-family="Arial, sans-serif" font-size="28" font-weight="900" fill="#374151">S</text>
  <text x="365" y="210" text-anchor="middle" font-family="Arial, sans-serif" font-size="28" font-weight="900" fill="#374151">E</text>
  <text x="35" y="210" text-anchor="middle" font-family="Arial, sans-serif" font-size="28" font-weight="900" fill="#374151">W</text>

  <!-- Center Price Tag -->
  <path d="M165 210 L190 175 C192 172 195 170 198 170 L220 170 C223 170 225 172 225 175 L225 215 C225 218 223 220 220 220 L198 220 C195 220 192 218 190 215 L165 210 Z" fill="#0D9488" transform="rotate(-45 200 200)"/>
  <circle cx="218" cy="182" r="4" fill="white" transform="rotate(-45 200 200)"/>
  <path d="M192 205 L208 185 M195 188 L196 189 M204 201 L205 202" stroke="white" stroke-width="2" stroke-linecap="round" transform="rotate(-45 200 200)"/>
</svg>
